<svg width="190" height="190" viewBox="0 0 190 190" fill="none" xmlns="http://www.w3.org/2000/svg">
<g clip-path="url(#clip0_2627_1325)">
<rect width="190" height="190" rx="8" fill="#A4A4A4"/>
<circle cx="95" cy="80" r="60" fill="#D9D9D9"/>
<circle cx="95" cy="272" r="121" fill="#D9D9D9"/>
<rect width="190" height="190" fill="black" fill-opacity="0.5"/>
<rect x="52.0679" y="166.875" width="11.6506" height="3.21396" transform="rotate(135 52.0679 166.875)" fill="white"/>
<path d="M53.204 163.466C53.8316 164.094 53.8316 165.111 53.204 165.739L52.6359 166.307L50.3633 164.034L50.9314 163.466C51.559 162.839 52.5765 162.839 53.204 163.466Z" fill="white"/>
<path d="M40.5404 175.484L41.557 172.841L43.8296 175.113L41.1866 176.13C40.7822 176.285 40.3849 175.888 40.5404 175.484Z" fill="white"/>
<path d="M65.3643 166.352V169.616H69.2043V171.104H65.3643V174.512H69.6843V176H63.5403V164.864H69.6843V166.352H65.3643ZM71.323 171.552C71.323 170.667 71.5043 169.883 71.867 169.2C72.2403 168.517 72.7416 167.989 73.371 167.616C74.011 167.232 74.7203 167.04 75.499 167.04C76.075 167.04 76.6403 167.168 77.195 167.424C77.7603 167.669 78.2083 168 78.539 168.416V164.16H80.379V176H78.539V174.672C78.2403 175.099 77.8243 175.451 77.291 175.728C76.7683 176.005 76.1656 176.144 75.483 176.144C74.715 176.144 74.011 175.952 73.371 175.568C72.7416 175.173 72.2403 174.629 71.867 173.936C71.5043 173.232 71.323 172.437 71.323 171.552ZM78.539 171.584C78.539 170.976 78.411 170.448 78.155 170C77.9096 169.552 77.5843 169.211 77.179 168.976C76.7736 168.741 76.3363 168.624 75.867 168.624C75.3976 168.624 74.9603 168.741 74.555 168.976C74.1496 169.2 73.819 169.536 73.563 169.984C73.3176 170.421 73.195 170.944 73.195 171.552C73.195 172.16 73.3176 172.693 73.563 173.152C73.819 173.611 74.1496 173.963 74.555 174.208C74.971 174.443 75.4083 174.56 75.867 174.56C76.3363 174.56 76.7736 174.443 77.179 174.208C77.5843 173.973 77.9096 173.632 78.155 173.184C78.411 172.725 78.539 172.192 78.539 171.584ZM83.7027 166.016C83.372 166.016 83.0947 165.904 82.8707 165.68C82.6467 165.456 82.5347 165.179 82.5347 164.848C82.5347 164.517 82.6467 164.24 82.8707 164.016C83.0947 163.792 83.372 163.68 83.7027 163.68C84.0227 163.68 84.2947 163.792 84.5187 164.016C84.7427 164.24 84.8547 164.517 84.8547 164.848C84.8547 165.179 84.7427 165.456 84.5187 165.68C84.2947 165.904 84.0227 166.016 83.7027 166.016ZM84.5987 167.184V176H82.7747V167.184H84.5987ZM89.1215 168.672V173.552C89.1215 173.883 89.1961 174.123 89.3455 174.272C89.5055 174.411 89.7721 174.48 90.1455 174.48H91.2655V176H89.8255C89.0041 176 88.3748 175.808 87.9375 175.424C87.5001 175.04 87.2815 174.416 87.2815 173.552V168.672H86.2415V167.184H87.2815V164.992H89.1215V167.184H91.2655V168.672H89.1215ZM103.807 173.728H99.1508L98.3508 176H96.4468L100.431 164.864H102.543L106.527 176H104.607L103.807 173.728ZM103.295 172.24L101.487 167.072L99.6628 172.24H103.295ZM111.667 174.368L114.163 167.184H116.099L112.739 176H110.563L107.219 167.184H109.171L111.667 174.368ZM116.87 171.552C116.87 170.667 117.051 169.883 117.414 169.2C117.787 168.517 118.288 167.989 118.918 167.616C119.558 167.232 120.262 167.04 121.03 167.04C121.723 167.04 122.326 167.179 122.838 167.456C123.36 167.723 123.776 168.059 124.086 168.464V167.184H125.926V176H124.086V174.688C123.776 175.104 123.355 175.451 122.822 175.728C122.288 176.005 121.68 176.144 120.998 176.144C120.24 176.144 119.547 175.952 118.918 175.568C118.288 175.173 117.787 174.629 117.414 173.936C117.051 173.232 116.87 172.437 116.87 171.552ZM124.086 171.584C124.086 170.976 123.958 170.448 123.702 170C123.456 169.552 123.131 169.211 122.726 168.976C122.32 168.741 121.883 168.624 121.414 168.624C120.944 168.624 120.507 168.741 120.102 168.976C119.696 169.2 119.366 169.536 119.11 169.984C118.864 170.421 118.742 170.944 118.742 171.552C118.742 172.16 118.864 172.693 119.11 173.152C119.366 173.611 119.696 173.963 120.102 174.208C120.518 174.443 120.955 174.56 121.414 174.56C121.883 174.56 122.32 174.443 122.726 174.208C123.131 173.973 123.456 173.632 123.702 173.184C123.958 172.725 124.086 172.192 124.086 171.584ZM130.45 168.672V173.552C130.45 173.883 130.524 174.123 130.674 174.272C130.834 174.411 131.1 174.48 131.474 174.48H132.594V176H131.154C130.332 176 129.703 175.808 129.266 175.424C128.828 175.04 128.61 174.416 128.61 173.552V168.672H127.57V167.184H128.61V164.992H130.45V167.184H132.594V168.672H130.45ZM133.667 171.552C133.667 170.667 133.848 169.883 134.211 169.2C134.584 168.517 135.085 167.989 135.715 167.616C136.355 167.232 137.059 167.04 137.827 167.04C138.52 167.04 139.123 167.179 139.635 167.456C140.157 167.723 140.573 168.059 140.883 168.464V167.184H142.723V176H140.883V174.688C140.573 175.104 140.152 175.451 139.619 175.728C139.085 176.005 138.477 176.144 137.795 176.144C137.037 176.144 136.344 175.952 135.715 175.568C135.085 175.173 134.584 174.629 134.211 173.936C133.848 173.232 133.667 172.437 133.667 171.552ZM140.883 171.584C140.883 170.976 140.755 170.448 140.499 170C140.253 169.552 139.928 169.211 139.523 168.976C139.117 168.741 138.68 168.624 138.211 168.624C137.741 168.624 137.304 168.741 136.899 168.976C136.493 169.2 136.163 169.536 135.907 169.984C135.661 170.421 135.539 170.944 135.539 171.552C135.539 172.16 135.661 172.693 135.907 173.152C136.163 173.611 136.493 173.963 136.899 174.208C137.315 174.443 137.752 174.56 138.211 174.56C138.68 174.56 139.117 174.443 139.523 174.208C139.928 173.973 140.253 173.632 140.499 173.184C140.755 172.725 140.883 172.192 140.883 171.584ZM146.942 168.464C147.209 168.016 147.561 167.669 147.998 167.424C148.446 167.168 148.974 167.04 149.582 167.04V168.928H149.118C148.404 168.928 147.86 169.109 147.486 169.472C147.124 169.835 146.942 170.464 146.942 171.36V176H145.118V167.184H146.942V168.464Z" fill="white"/>
</g>
<defs>
<clipPath id="clip0_2627_1325">
<rect width="190" height="190" rx="8" fill="white"/>
</clipPath>
</defs>
</svg>
